<mxfile host="app.diagrams.net" modified="2024-06-03T20:33:32.114Z" agent="Mozilla/5.0 (X11; Linux x86_64; rv:126.0) Gecko/20100101 Firefox/126.0" etag="I1er2cGZZmsCCEwUyXSD" version="24.4.13" type="github">
  <diagram name="Page-1" id="Lbbw28RQgVFOFl811GVP">
    <mxGraphModel dx="876" dy="1065" grid="1" gridSize="10" guides="1" tooltips="1" connect="1" arrows="1" fold="1" page="1" pageScale="1" pageWidth="850" pageHeight="1100" math="0" shadow="0">
      <root>
        <mxCell id="0" />
        <mxCell id="1" parent="0" />
        <mxCell id="9edgcBYSyl0drh00GC53-1" value="&lt;b&gt;Anchor:&lt;/b&gt;&lt;br&gt;He could smell the roses" style="rounded=1;whiteSpace=wrap;html=1;fillColor=#dae8fc;strokeColor=#6c8ebf;" vertex="1" parent="1">
          <mxGeometry x="90" y="70" width="180" height="60" as="geometry" />
        </mxCell>
        <mxCell id="9edgcBYSyl0drh00GC53-2" value="Contrastive Learning" style="text;html=1;align=center;verticalAlign=middle;whiteSpace=wrap;rounded=0;fontSize=14;" vertex="1" parent="1">
          <mxGeometry x="60" y="20" width="190" height="30" as="geometry" />
        </mxCell>
        <mxCell id="9edgcBYSyl0drh00GC53-3" value="&lt;b&gt;Positive Example:&lt;br&gt;&lt;/b&gt;A field of fragrant flowers" style="rounded=1;whiteSpace=wrap;html=1;fillColor=#d5e8d4;strokeColor=#82b366;" vertex="1" parent="1">
          <mxGeometry x="90" y="160" width="180" height="60" as="geometry" />
        </mxCell>
        <mxCell id="9edgcBYSyl0drh00GC53-4" value="&lt;b&gt;Negative Example:&lt;br&gt;&lt;/b&gt;The lion roared majestically" style="rounded=1;whiteSpace=wrap;html=1;fillColor=#f8cecc;strokeColor=#b85450;" vertex="1" parent="1">
          <mxGeometry x="90" y="250" width="180" height="60" as="geometry" />
        </mxCell>
        <mxCell id="9edgcBYSyl0drh00GC53-5" value="Schroff et al. 2015" style="text;html=1;align=center;verticalAlign=middle;whiteSpace=wrap;rounded=0;" vertex="1" parent="1">
          <mxGeometry x="80" y="330" width="110" height="30" as="geometry" />
        </mxCell>
        <mxCell id="9edgcBYSyl0drh00GC53-18" style="rounded=0;orthogonalLoop=1;jettySize=auto;html=1;exitX=1;exitY=1;exitDx=0;exitDy=0;entryX=0;entryY=0.5;entryDx=0;entryDy=0;" edge="1" parent="1" source="9edgcBYSyl0drh00GC53-6" target="9edgcBYSyl0drh00GC53-8">
          <mxGeometry relative="1" as="geometry" />
        </mxCell>
        <mxCell id="9edgcBYSyl0drh00GC53-6" value="Anchor" style="ellipse;whiteSpace=wrap;html=1;aspect=fixed;fillColor=#dae8fc;strokeColor=#6c8ebf;labelPosition=center;verticalLabelPosition=top;align=center;verticalAlign=bottom;" vertex="1" parent="1">
          <mxGeometry x="350" y="190" width="40" height="40" as="geometry" />
        </mxCell>
        <mxCell id="9edgcBYSyl0drh00GC53-8" value="&lt;div&gt;Positive&lt;/div&gt;" style="ellipse;whiteSpace=wrap;html=1;aspect=fixed;fillColor=#d5e8d4;strokeColor=#82b366;labelPosition=center;verticalLabelPosition=top;align=center;verticalAlign=bottom;" vertex="1" parent="1">
          <mxGeometry x="480" y="230" width="40" height="40" as="geometry" />
        </mxCell>
        <mxCell id="9edgcBYSyl0drh00GC53-10" value="Negative" style="ellipse;whiteSpace=wrap;html=1;aspect=fixed;fillColor=#f8cecc;strokeColor=#b85450;labelPosition=center;verticalLabelPosition=top;align=center;verticalAlign=bottom;" vertex="1" parent="1">
          <mxGeometry x="410" y="140" width="40" height="40" as="geometry" />
        </mxCell>
        <mxCell id="9edgcBYSyl0drh00GC53-20" style="rounded=0;orthogonalLoop=1;jettySize=auto;html=1;exitX=1;exitY=1;exitDx=0;exitDy=0;entryX=0;entryY=0;entryDx=0;entryDy=0;" edge="1" parent="1" source="9edgcBYSyl0drh00GC53-13" target="9edgcBYSyl0drh00GC53-15">
          <mxGeometry relative="1" as="geometry" />
        </mxCell>
        <mxCell id="9edgcBYSyl0drh00GC53-21" style="rounded=0;orthogonalLoop=1;jettySize=auto;html=1;exitX=1;exitY=0.5;exitDx=0;exitDy=0;entryX=0;entryY=0.5;entryDx=0;entryDy=0;" edge="1" parent="1" source="9edgcBYSyl0drh00GC53-13" target="9edgcBYSyl0drh00GC53-14">
          <mxGeometry relative="1" as="geometry" />
        </mxCell>
        <mxCell id="9edgcBYSyl0drh00GC53-13" value="Anchor" style="ellipse;whiteSpace=wrap;html=1;aspect=fixed;fillColor=#dae8fc;strokeColor=#6c8ebf;labelPosition=center;verticalLabelPosition=top;align=center;verticalAlign=bottom;" vertex="1" parent="1">
          <mxGeometry x="600" y="200" width="40" height="40" as="geometry" />
        </mxCell>
        <mxCell id="9edgcBYSyl0drh00GC53-14" value="Negative" style="ellipse;whiteSpace=wrap;html=1;aspect=fixed;fillColor=#f8cecc;strokeColor=#b85450;labelPosition=center;verticalLabelPosition=top;align=center;verticalAlign=bottom;" vertex="1" parent="1">
          <mxGeometry x="740" y="150" width="40" height="40" as="geometry" />
        </mxCell>
        <mxCell id="9edgcBYSyl0drh00GC53-15" value="&lt;div&gt;Positive&lt;/div&gt;" style="ellipse;whiteSpace=wrap;html=1;aspect=fixed;fillColor=#d5e8d4;strokeColor=#82b366;labelPosition=center;verticalLabelPosition=top;align=center;verticalAlign=bottom;" vertex="1" parent="1">
          <mxGeometry x="650" y="250" width="40" height="40" as="geometry" />
        </mxCell>
        <mxCell id="9edgcBYSyl0drh00GC53-19" style="rounded=0;orthogonalLoop=1;jettySize=auto;html=1;exitX=1;exitY=0;exitDx=0;exitDy=0;entryX=-0.05;entryY=0.775;entryDx=0;entryDy=0;entryPerimeter=0;" edge="1" parent="1" source="9edgcBYSyl0drh00GC53-6" target="9edgcBYSyl0drh00GC53-10">
          <mxGeometry relative="1" as="geometry" />
        </mxCell>
        <mxCell id="9edgcBYSyl0drh00GC53-22" value="" style="shape=flexArrow;endArrow=classic;html=1;rounded=0;fillColor=#ffe6cc;strokeColor=#d79b00;" edge="1" parent="1">
          <mxGeometry width="50" height="50" relative="1" as="geometry">
            <mxPoint x="520" y="150" as="sourcePoint" />
            <mxPoint x="600" y="150" as="targetPoint" />
          </mxGeometry>
        </mxCell>
        <mxCell id="9edgcBYSyl0drh00GC53-23" value="Text" style="edgeLabel;html=1;align=center;verticalAlign=middle;resizable=0;points=[];" vertex="1" connectable="0" parent="9edgcBYSyl0drh00GC53-22">
          <mxGeometry x="-0.4" y="-2" relative="1" as="geometry">
            <mxPoint as="offset" />
          </mxGeometry>
        </mxCell>
        <mxCell id="9edgcBYSyl0drh00GC53-24" value="Learning" style="edgeLabel;html=1;align=center;verticalAlign=middle;resizable=0;points=[];" vertex="1" connectable="0" parent="9edgcBYSyl0drh00GC53-22">
          <mxGeometry x="-0.025" y="-3" relative="1" as="geometry">
            <mxPoint as="offset" />
          </mxGeometry>
        </mxCell>
        <mxCell id="9edgcBYSyl0drh00GC53-25" value="Push away Negative Example, Pull closer Positive Example" style="text;html=1;align=center;verticalAlign=middle;whiteSpace=wrap;rounded=0;" vertex="1" parent="1">
          <mxGeometry x="500" y="80" width="140" height="30" as="geometry" />
        </mxCell>
        <mxCell id="9edgcBYSyl0drh00GC53-26" value="OpenAI CLIP" style="text;html=1;align=center;verticalAlign=middle;whiteSpace=wrap;rounded=0;fontSize=14;" vertex="1" parent="1">
          <mxGeometry x="80" y="430" width="150" height="30" as="geometry" />
        </mxCell>
        <UserObject label="https://github.com/OpenAI/CLIP" link="https://github.com/OpenAI/CLIP" id="9edgcBYSyl0drh00GC53-27">
          <mxCell style="text;whiteSpace=wrap;" vertex="1" parent="1">
            <mxGeometry x="200" y="430" width="200" height="40" as="geometry" />
          </mxCell>
        </UserObject>
        <UserObject label="https://arxiv.org/abs/2103.00020" link="https://arxiv.org/abs/2103.00020" id="9edgcBYSyl0drh00GC53-28">
          <mxCell style="text;whiteSpace=wrap;" vertex="1" parent="1">
            <mxGeometry x="380" y="430" width="200" height="40" as="geometry" />
          </mxCell>
        </UserObject>
        <mxCell id="9edgcBYSyl0drh00GC53-30" value="Text Encoder" style="shape=trapezoid;perimeter=trapezoidPerimeter;whiteSpace=wrap;html=1;fixedSize=1;rotation=90;" vertex="1" parent="1">
          <mxGeometry x="110" y="570" width="120" height="60" as="geometry" />
        </mxCell>
        <mxCell id="9edgcBYSyl0drh00GC53-70" style="edgeStyle=orthogonalEdgeStyle;rounded=0;orthogonalLoop=1;jettySize=auto;html=1;exitX=0.5;exitY=0;exitDx=0;exitDy=0;" edge="1" parent="1" source="9edgcBYSyl0drh00GC53-31" target="9edgcBYSyl0drh00GC53-65">
          <mxGeometry relative="1" as="geometry" />
        </mxCell>
        <mxCell id="9edgcBYSyl0drh00GC53-31" value="Image Encoder" style="shape=trapezoid;perimeter=trapezoidPerimeter;whiteSpace=wrap;html=1;fixedSize=1;rotation=90;" vertex="1" parent="1">
          <mxGeometry x="110" y="740" width="120" height="60" as="geometry" />
        </mxCell>
        <mxCell id="9edgcBYSyl0drh00GC53-32" value="Pepper the Aussie Pup" style="rounded=0;whiteSpace=wrap;html=1;" vertex="1" parent="1">
          <mxGeometry x="10" y="570" width="120" height="60" as="geometry" />
        </mxCell>
        <mxCell id="9edgcBYSyl0drh00GC53-34" value="Dog Photo" style="rounded=0;whiteSpace=wrap;html=1;" vertex="1" parent="1">
          <mxGeometry x="10" y="730" width="120" height="60" as="geometry" />
        </mxCell>
        <mxCell id="9edgcBYSyl0drh00GC53-35" value="" style="shape=table;startSize=0;container=1;collapsible=0;childLayout=tableLayout;fontSize=16;fontColor=#3399FF;" vertex="1" parent="1">
          <mxGeometry x="310" y="660" width="180" height="120" as="geometry" />
        </mxCell>
        <mxCell id="9edgcBYSyl0drh00GC53-36" value="" style="shape=tableRow;horizontal=0;startSize=0;swimlaneHead=0;swimlaneBody=0;strokeColor=inherit;top=0;left=0;bottom=0;right=0;collapsible=0;dropTarget=0;fillColor=none;points=[[0,0.5],[1,0.5]];portConstraint=eastwest;fontSize=16;" vertex="1" parent="9edgcBYSyl0drh00GC53-35">
          <mxGeometry width="180" height="40" as="geometry" />
        </mxCell>
        <mxCell id="9edgcBYSyl0drh00GC53-37" value="&lt;font color=&quot;#007fff&quot;&gt;I1*T1&lt;/font&gt;" style="shape=partialRectangle;html=1;whiteSpace=wrap;connectable=0;strokeColor=inherit;overflow=hidden;fillColor=none;top=0;left=0;bottom=0;right=0;pointerEvents=1;fontSize=16;" vertex="1" parent="9edgcBYSyl0drh00GC53-36">
          <mxGeometry width="60" height="40" as="geometry">
            <mxRectangle width="60" height="40" as="alternateBounds" />
          </mxGeometry>
        </mxCell>
        <mxCell id="9edgcBYSyl0drh00GC53-38" value="..." style="shape=partialRectangle;html=1;whiteSpace=wrap;connectable=0;strokeColor=inherit;overflow=hidden;fillColor=none;top=0;left=0;bottom=0;right=0;pointerEvents=1;fontSize=16;" vertex="1" parent="9edgcBYSyl0drh00GC53-36">
          <mxGeometry x="60" width="60" height="40" as="geometry">
            <mxRectangle width="60" height="40" as="alternateBounds" />
          </mxGeometry>
        </mxCell>
        <mxCell id="9edgcBYSyl0drh00GC53-39" value="I1*TN" style="shape=partialRectangle;html=1;whiteSpace=wrap;connectable=0;strokeColor=inherit;overflow=hidden;fillColor=none;top=0;left=0;bottom=0;right=0;pointerEvents=1;fontSize=16;" vertex="1" parent="9edgcBYSyl0drh00GC53-36">
          <mxGeometry x="120" width="60" height="40" as="geometry">
            <mxRectangle width="60" height="40" as="alternateBounds" />
          </mxGeometry>
        </mxCell>
        <mxCell id="9edgcBYSyl0drh00GC53-40" value="" style="shape=tableRow;horizontal=0;startSize=0;swimlaneHead=0;swimlaneBody=0;strokeColor=inherit;top=0;left=0;bottom=0;right=0;collapsible=0;dropTarget=0;fillColor=none;points=[[0,0.5],[1,0.5]];portConstraint=eastwest;fontSize=16;" vertex="1" parent="9edgcBYSyl0drh00GC53-35">
          <mxGeometry y="40" width="180" height="40" as="geometry" />
        </mxCell>
        <mxCell id="9edgcBYSyl0drh00GC53-41" value="..." style="shape=partialRectangle;html=1;whiteSpace=wrap;connectable=0;strokeColor=inherit;overflow=hidden;fillColor=none;top=0;left=0;bottom=0;right=0;pointerEvents=1;fontSize=16;" vertex="1" parent="9edgcBYSyl0drh00GC53-40">
          <mxGeometry width="60" height="40" as="geometry">
            <mxRectangle width="60" height="40" as="alternateBounds" />
          </mxGeometry>
        </mxCell>
        <mxCell id="9edgcBYSyl0drh00GC53-42" value="..." style="shape=partialRectangle;html=1;whiteSpace=wrap;connectable=0;strokeColor=inherit;overflow=hidden;fillColor=none;top=0;left=0;bottom=0;right=0;pointerEvents=1;fontSize=16;fontColor=#3399FF;" vertex="1" parent="9edgcBYSyl0drh00GC53-40">
          <mxGeometry x="60" width="60" height="40" as="geometry">
            <mxRectangle width="60" height="40" as="alternateBounds" />
          </mxGeometry>
        </mxCell>
        <mxCell id="9edgcBYSyl0drh00GC53-43" value="..." style="shape=partialRectangle;html=1;whiteSpace=wrap;connectable=0;strokeColor=inherit;overflow=hidden;fillColor=none;top=0;left=0;bottom=0;right=0;pointerEvents=1;fontSize=16;" vertex="1" parent="9edgcBYSyl0drh00GC53-40">
          <mxGeometry x="120" width="60" height="40" as="geometry">
            <mxRectangle width="60" height="40" as="alternateBounds" />
          </mxGeometry>
        </mxCell>
        <mxCell id="9edgcBYSyl0drh00GC53-44" value="" style="shape=tableRow;horizontal=0;startSize=0;swimlaneHead=0;swimlaneBody=0;strokeColor=inherit;top=0;left=0;bottom=0;right=0;collapsible=0;dropTarget=0;fillColor=none;points=[[0,0.5],[1,0.5]];portConstraint=eastwest;fontSize=16;" vertex="1" parent="9edgcBYSyl0drh00GC53-35">
          <mxGeometry y="80" width="180" height="40" as="geometry" />
        </mxCell>
        <mxCell id="9edgcBYSyl0drh00GC53-45" value="IN*T1" style="shape=partialRectangle;html=1;whiteSpace=wrap;connectable=0;strokeColor=inherit;overflow=hidden;fillColor=none;top=0;left=0;bottom=0;right=0;pointerEvents=1;fontSize=16;" vertex="1" parent="9edgcBYSyl0drh00GC53-44">
          <mxGeometry width="60" height="40" as="geometry">
            <mxRectangle width="60" height="40" as="alternateBounds" />
          </mxGeometry>
        </mxCell>
        <mxCell id="9edgcBYSyl0drh00GC53-46" value="..." style="shape=partialRectangle;html=1;whiteSpace=wrap;connectable=0;strokeColor=inherit;overflow=hidden;fillColor=none;top=0;left=0;bottom=0;right=0;pointerEvents=1;fontSize=16;" vertex="1" parent="9edgcBYSyl0drh00GC53-44">
          <mxGeometry x="60" width="60" height="40" as="geometry">
            <mxRectangle width="60" height="40" as="alternateBounds" />
          </mxGeometry>
        </mxCell>
        <mxCell id="9edgcBYSyl0drh00GC53-47" value="&lt;font color=&quot;#007fff&quot;&gt;IN*TN&lt;/font&gt;" style="shape=partialRectangle;html=1;whiteSpace=wrap;connectable=0;strokeColor=inherit;overflow=hidden;fillColor=none;top=0;left=0;bottom=0;right=0;pointerEvents=1;fontSize=16;" vertex="1" parent="9edgcBYSyl0drh00GC53-44">
          <mxGeometry x="120" width="60" height="40" as="geometry">
            <mxRectangle width="60" height="40" as="alternateBounds" />
          </mxGeometry>
        </mxCell>
        <mxCell id="9edgcBYSyl0drh00GC53-48" value="" style="shape=partialRectangle;html=1;whiteSpace=wrap;connectable=0;strokeColor=inherit;overflow=hidden;fillColor=none;top=0;left=0;bottom=0;right=0;pointerEvents=1;fontSize=16;" vertex="1" parent="1">
          <mxGeometry x="300" y="660" width="40" height="40" as="geometry">
            <mxRectangle width="60" height="40" as="alternateBounds" />
          </mxGeometry>
        </mxCell>
        <mxCell id="9edgcBYSyl0drh00GC53-62" value="T1" style="text;html=1;align=center;verticalAlign=middle;whiteSpace=wrap;rounded=0;fontColor=#7F00FF;" vertex="1" parent="1">
          <mxGeometry x="310" y="620" width="60" height="30" as="geometry" />
        </mxCell>
        <mxCell id="9edgcBYSyl0drh00GC53-63" value="TN" style="text;html=1;align=center;verticalAlign=middle;whiteSpace=wrap;rounded=0;fontColor=#7F00FF;" vertex="1" parent="1">
          <mxGeometry x="425" y="620" width="60" height="30" as="geometry" />
        </mxCell>
        <mxCell id="9edgcBYSyl0drh00GC53-64" value="..." style="text;html=1;align=center;verticalAlign=middle;whiteSpace=wrap;rounded=0;fontColor=#7F00FF;" vertex="1" parent="1">
          <mxGeometry x="365" y="620" width="60" height="30" as="geometry" />
        </mxCell>
        <mxCell id="9edgcBYSyl0drh00GC53-65" value="..." style="text;html=1;align=center;verticalAlign=middle;whiteSpace=wrap;rounded=0;fontColor=#006600;" vertex="1" parent="1">
          <mxGeometry x="260" y="705" width="60" height="30" as="geometry" />
        </mxCell>
        <mxCell id="9edgcBYSyl0drh00GC53-66" value="I1" style="text;html=1;align=center;verticalAlign=middle;whiteSpace=wrap;rounded=0;fontColor=#006600;" vertex="1" parent="1">
          <mxGeometry x="260" y="660" width="60" height="30" as="geometry" />
        </mxCell>
        <mxCell id="9edgcBYSyl0drh00GC53-67" value="&lt;div&gt;IN&lt;/div&gt;" style="text;html=1;align=center;verticalAlign=middle;whiteSpace=wrap;rounded=0;fontColor=#006600;" vertex="1" parent="1">
          <mxGeometry x="260" y="740" width="60" height="30" as="geometry" />
        </mxCell>
        <mxCell id="9edgcBYSyl0drh00GC53-68" value="" style="endArrow=classic;html=1;rounded=0;" edge="1" parent="1">
          <mxGeometry width="50" height="50" relative="1" as="geometry">
            <mxPoint x="210" y="590" as="sourcePoint" />
            <mxPoint x="400" y="610" as="targetPoint" />
            <Array as="points">
              <mxPoint x="400" y="590" />
            </Array>
          </mxGeometry>
        </mxCell>
        <mxCell id="9edgcBYSyl0drh00GC53-71" value="Diagonal elements are positive examples" style="text;html=1;align=center;verticalAlign=middle;whiteSpace=wrap;rounded=0;" vertex="1" parent="1">
          <mxGeometry x="490" y="790" width="60" height="30" as="geometry" />
        </mxCell>
        <UserObject label="https://arxiv.org/abs/2305.05665" link="https://arxiv.org/abs/2305.05665" id="9edgcBYSyl0drh00GC53-72">
          <mxCell style="text;whiteSpace=wrap;" vertex="1" parent="1">
            <mxGeometry x="200" y="920" width="200" height="40" as="geometry" />
          </mxCell>
        </UserObject>
        <mxCell id="9edgcBYSyl0drh00GC53-74" value="ImageBind: One Embedding Space To Bind Them All" style="text;whiteSpace=wrap;" vertex="1" parent="1">
          <mxGeometry x="45" y="900" width="320" height="40" as="geometry" />
        </mxCell>
        <UserObject label="https://github.com/facebookresearch/ImageBind" link="https://github.com/facebookresearch/ImageBind" id="9edgcBYSyl0drh00GC53-75">
          <mxCell style="text;whiteSpace=wrap;" vertex="1" parent="1">
            <mxGeometry x="200" y="940" width="290" height="40" as="geometry" />
          </mxCell>
        </UserObject>
        <mxCell id="9edgcBYSyl0drh00GC53-76" value="LI,M = − log( exp(qi ⊺ *ki/τ )&#xa;                  ---------------------------------&#xa;                  exp(qi⊺ * ki/τ ) + SUM j̸ =i exp(qi⊺ * kj /τ )" style="text;whiteSpace=wrap;" vertex="1" parent="1">
          <mxGeometry x="70" y="990" width="390" height="110" as="geometry" />
        </mxCell>
      </root>
    </mxGraphModel>
  </diagram>
</mxfile>
